<?xml version="1.0" standalone="no"?>
<!DOCTYPE svg PUBLIC "-//W3C//DTD SVG 20010904//EN"
 "http://www.w3.org/TR/2001/REC-SVG-20010904/DTD/svg10.dtd">
<svg version="1.0" xmlns="http://www.w3.org/2000/svg"
 width="764.000000pt" height="1090.000000pt" viewBox="0 0 764.000000 1090.000000"
 preserveAspectRatio="xMidYMid meet">

<g transform="translate(0.000000,1090.000000) scale(0.100000,-0.100000)"
fill="#000000" stroke="none">
<path d="M5258 10850 c-54 -16 -91 -47 -133 -110 -23 -36 -329 -528 -680
-1095 -351 -566 -647 -1040 -658 -1052 -19 -21 -22 -22 -38 -7 -22 20 -34 55
-53 156 -22 112 -54 171 -112 199 -64 31 -121 34 -254 15 -126 -19 -181 -41
-225 -92 l-31 -35 -64 17 c-41 10 -85 14 -120 11 -85 -8 -213 -50 -279 -90
-35 -22 -72 -37 -90 -37 -75 0 -231 -70 -287 -130 -26 -27 -47 -40 -64 -40
-15 0 -49 -7 -76 -15 -54 -16 -250 -122 -303 -163 -18 -15 -63 -45 -100 -68
-36 -22 -120 -82 -185 -133 l-119 -92 -102 7 c-96 6 -106 5 -158 -19 -47 -21
-60 -33 -81 -76 -23 -45 -26 -62 -26 -158 0 -107 0 -108 -35 -157 -35 -49 -46
-83 -48 -153 -2 -33 -6 -39 -32 -47 -103 -30 -160 -80 -227 -198 -18 -32 -47
-78 -64 -101 -42 -56 -170 -286 -194 -348 -28 -69 -26 -138 5 -199 29 -57 73
-87 190 -128 43 -15 77 -31 76 -37 -1 -18 -70 -16 -144 4 -101 29 -152 27
-218 -6 -47 -25 -58 -36 -85 -90 -49 -100 -87 -255 -80 -325 6 -49 4 -63 -13
-86 -49 -70 -76 -197 -66 -314 6 -64 4 -87 -14 -138 -40 -114 -53 -354 -25
-437 13 -37 14 -61 8 -108 -18 -132 2 -328 43 -408 22 -44 24 -56 18 -126 -7
-71 -4 -90 45 -276 28 -110 62 -225 76 -255 13 -30 33 -86 45 -125 12 -38 45
-117 75 -174 30 -57 54 -110 54 -117 0 -22 57 -144 84 -178 13 -17 39 -63 58
-102 66 -133 195 -320 248 -358 37 -27 56 -50 83 -108 42 -86 128 -185 203
-233 42 -27 60 -47 84 -95 23 -47 47 -73 105 -119 41 -33 82 -62 92 -65 10 -3
48 -39 84 -78 37 -40 93 -89 125 -108 33 -19 78 -50 100 -68 23 -19 104 -74
180 -122 77 -48 141 -95 142 -104 2 -9 -126 -315 -284 -679 -300 -691 -344
-799 -344 -857 0 -52 34 -116 72 -140 77 -47 213 -11 282 73 18 23 227 346
464 718 237 371 441 684 452 694 20 18 22 18 58 1 80 -39 331 -118 417 -131
49 -8 119 -24 155 -35 43 -14 91 -21 141 -21 41 0 100 -7 130 -15 30 -8 101
-17 159 -20 87 -5 113 -3 150 12 57 22 123 22 180 0 52 -21 172 -17 256 9 27
8 85 15 129 15 100 1 191 20 257 54 38 20 64 26 113 26 62 0 171 27 230 58 17
8 47 33 68 56 l37 41 88 0 c76 0 96 5 162 33 101 44 146 77 198 144 l43 57 59
0 c109 -1 248 83 296 177 28 56 30 58 84 69 75 15 127 44 200 111 69 65 99
114 115 194 l12 55 56 7 c73 9 121 35 178 95 62 65 87 103 108 165 15 45 25
57 69 83 60 36 61 36 193 240 113 174 232 399 244 461 4 21 22 64 41 95 117
188 274 746 310 1094 41 410 38 686 -11 792 -21 46 -31 57 -77 78 -29 14 -60
25 -69 25 -28 0 -36 22 -37 95 -1 46 -10 99 -26 150 l-25 80 30 35 c16 19 44
63 61 98 39 82 41 154 4 267 -35 109 -72 168 -131 213 -39 30 -49 44 -47 63
18 159 17 164 -79 339 -107 196 -116 208 -172 236 -44 23 -60 26 -119 22 -78
-6 -81 -2 -48 62 29 56 27 133 -5 196 -58 115 -159 194 -250 194 -36 0 -45 3
-45 18 0 10 40 75 89 145 49 71 97 149 105 174 33 96 11 197 -56 264 -57 57
-348 290 -413 330 -33 21 -83 57 -112 81 -113 94 -506 307 -643 348 -41 13
-97 34 -125 48 -27 14 -135 54 -240 88 -159 53 -191 66 -193 84 -2 11 119 325
268 697 301 748 300 747 259 842 -20 47 -29 57 -73 77 -52 24 -91 28 -138 14z
m-290 -2036 c66 -19 82 -30 82 -54 0 -10 -25 -73 -55 -140 -75 -167 -141 -344
-224 -610 -93 -296 -104 -346 -89 -433 6 -37 8 -70 5 -73 -7 -7 -313 23 -328
31 -22 14 -18 23 319 860 90 226 169 416 174 423 14 16 49 15 116 -4z m-658
-139 c0 -9 -108 -284 -240 -613 -131 -328 -244 -621 -251 -651 -23 -111 26
-219 118 -259 56 -24 125 -36 298 -52 159 -15 165 -16 165 -42 0 -12 -237
-568 -527 -1237 -289 -669 -535 -1243 -546 -1276 -23 -74 -19 -144 12 -208 41
-84 128 -117 366 -140 107 -10 130 -15 133 -29 2 -9 -212 -353 -474 -765 -263
-411 -515 -808 -562 -881 -79 -123 -102 -151 -102 -119 0 7 111 267 246 578
244 560 294 684 294 738 0 50 -30 129 -60 160 -49 49 -125 70 -329 92 -115 13
-191 26 -200 34 -11 11 71 208 527 1257 297 683 548 1266 557 1293 37 111 10
230 -64 281 -52 36 -116 51 -286 69 -82 9 -153 19 -157 21 -4 3 -8 12 -8 21 0
13 291 488 942 1536 71 114 133 207 139 207 5 0 9 -7 9 -15z m1304 -126 c114
-63 146 -85 146 -102 0 -5 -22 -39 -49 -76 -140 -190 -306 -466 -417 -693 -50
-103 -58 -127 -62 -192 -5 -79 11 -140 46 -180 31 -34 91 -57 147 -57 110 0
180 56 245 195 86 186 289 525 407 678 30 40 51 58 66 58 12 0 55 -28 97 -63
57 -48 75 -69 74 -88 0 -15 -124 -202 -328 -494 -180 -258 -336 -479 -347
-490 -17 -17 -23 -18 -61 -7 -230 67 -393 88 -547 72 -54 -6 -99 -6 -104 -1
-5 5 -2 34 7 69 21 79 20 111 -4 173 -10 29 -17 56 -14 61 3 4 30 19 59 34 86
40 95 58 180 347 64 220 140 428 230 633 63 143 87 184 108 184 5 0 60 -27
121 -61z m-2336 -631 c1 -8 -131 -230 -294 -494 -164 -263 -311 -504 -326
-534 -72 -139 -43 -277 70 -334 57 -29 115 -40 315 -61 157 -16 167 -18 167
-39 0 -8 -239 -562 -530 -1231 -292 -670 -541 -1249 -555 -1287 -59 -162 -11
-287 129 -334 25 -9 133 -26 238 -37 177 -20 193 -24 196 -42 3 -19 -293 -714
-324 -762 -8 -13 -22 -23 -32 -23 -19 0 -163 104 -262 189 -162 139 -329 316
-457 486 -271 360 -450 783 -535 1271 -20 115 -23 162 -23 434 0 244 4 328 18
420 107 684 375 1206 863 1680 286 277 594 471 978 614 107 41 335 106 351
102 6 -1 11 -9 13 -18z m2863 -1080 c111 -139 232 -349 319 -553 266 -622 310
-1316 124 -1957 -181 -621 -615 -1220 -1144 -1577 -145 -98 -297 -183 -318
-179 -13 3 -17 16 -18 63 -1 33 -18 128 -37 210 -56 231 -68 315 -74 510 -9
274 19 504 92 754 42 143 105 301 126 314 11 7 34 2 83 -17 160 -64 367 -50
491 35 60 40 87 73 157 189 82 136 160 238 288 375 175 189 191 258 105 467
-26 64 -45 123 -42 132 3 8 25 20 49 26 183 48 215 226 101 554 -69 200 -168
357 -319 512 -52 53 -94 104 -94 114 0 20 46 80 61 80 5 0 27 -24 50 -52z
m-846 -177 c150 -31 298 -98 416 -188 127 -96 302 -324 285 -369 -7 -19 21
-21 -386 21 -266 28 -320 27 -393 -4 -68 -29 -101 -64 -242 -250 -230 -306
-317 -370 -565 -415 -185 -34 -204 -35 -208 -14 -4 22 453 1076 480 1105 39
42 175 95 301 118 103 19 209 17 312 -4z m377 -981 c133 -14 144 -19 158 -72
6 -24 24 -86 40 -139 41 -133 40 -144 -22 -215 -73 -83 -186 -237 -243 -330
-65 -106 -73 -114 -110 -114 -44 0 -116 48 -217 148 -99 96 -103 109 -61 174
50 80 168 333 202 433 19 55 38 106 44 113 12 15 73 15 209 2z m1447 -233 c13
-17 5 -27 -24 -27 -21 0 -45 17 -45 32 0 13 57 9 69 -5z m-2419 -948 c0 -5
-24 -40 -53 -77 -353 -447 -673 -1032 -861 -1570 -57 -164 -65 -221 -41 -291
38 -115 148 -167 266 -126 61 22 97 59 136 143 18 39 38 72 42 72 5 0 8 -55 8
-122 -2 -111 0 -128 22 -171 15 -31 20 -52 14 -58 -20 -20 -202 -31 -433 -26
-191 4 -262 10 -383 31 -140 24 -187 38 -187 54 0 10 -19 -20 605 957 313 490
580 917 593 950 28 71 44 89 160 176 85 66 112 79 112 58z m-14 -1914 c14 -34
43 -78 66 -102 50 -51 45 -62 -41 -87 -105 -31 -108 -28 -91 78 5 34 12 87 15
119 4 33 11 57 17 55 5 -2 21 -31 34 -63z"/>
</g>
</svg>
